<svg width="201" height="43" viewBox="0 0 201 43" fill="none" xmlns="http://www.w3.org/2000/svg">
<rect x="125" width="76" height="43" rx="8" fill="#228BE6"/>
<path d="M19.6491 7.81818V12.3821H7.81108V34H2.27557V7.81818H19.6491ZM26.0188 34.3707C24.766 34.3707 23.6495 34.1534 22.6694 33.7188C21.6893 33.2756 20.9137 32.6236 20.3427 31.7628C19.7802 30.8935 19.4989 29.8111 19.4989 28.5156C19.4989 27.4247 19.6992 26.5085 20.0998 25.767C20.5004 25.0256 21.0458 24.429 21.7362 23.9773C22.4265 23.5256 23.2106 23.1847 24.0884 22.9545C24.9748 22.7244 25.9038 22.5625 26.8754 22.4688C28.0174 22.3494 28.9379 22.2386 29.6367 22.1364C30.3356 22.0256 30.8427 21.8636 31.158 21.6506C31.4734 21.4375 31.631 21.1222 31.631 20.7045V20.6278C31.631 19.8182 31.3754 19.1918 30.864 18.7486C30.3612 18.3054 29.6452 18.0838 28.7163 18.0838C27.7362 18.0838 26.9563 18.3011 26.3768 18.7358C25.7972 19.1619 25.4137 19.6989 25.2262 20.3466L20.1893 19.9375C20.445 18.7443 20.9478 17.7131 21.6978 16.8438C22.4478 15.9659 23.4151 15.2926 24.5998 14.8239C25.793 14.3466 27.1737 14.108 28.7418 14.108C29.8327 14.108 30.8768 14.2358 31.8739 14.4915C32.8796 14.7472 33.7702 15.1435 34.5458 15.6804C35.3299 16.2173 35.9478 16.9077 36.3995 17.7514C36.8512 18.5866 37.0771 19.5881 37.0771 20.7557V34H31.9123V31.277H31.7589C31.4435 31.8906 31.0217 32.4318 30.4933 32.9006C29.9648 33.3608 29.3299 33.723 28.5884 33.9872C27.8469 34.2429 26.9904 34.3707 26.0188 34.3707ZM27.5785 30.6122C28.3796 30.6122 29.087 30.4545 29.7006 30.1392C30.3143 29.8153 30.7958 29.3807 31.1452 28.8352C31.4947 28.2898 31.6694 27.6719 31.6694 26.9815V24.8977C31.4989 25.0085 31.2646 25.1108 30.9663 25.2045C30.6765 25.2898 30.3484 25.3707 29.9819 25.4474C29.6154 25.5156 29.2489 25.5795 28.8825 25.6392C28.516 25.6903 28.1836 25.7372 27.8853 25.7798C27.2461 25.8736 26.6879 26.0227 26.2106 26.2273C25.7333 26.4318 25.3626 26.7088 25.0984 27.0582C24.8342 27.3991 24.7021 27.8253 24.7021 28.3366C24.7021 29.0781 24.9705 29.6449 25.5075 30.0369C26.0529 30.4205 26.7433 30.6122 27.5785 30.6122ZM50.1744 34.3835C48.163 34.3835 46.4329 33.9574 44.984 33.1051C43.5437 32.2443 42.4357 31.0511 41.6602 29.5256C40.8931 28 40.5096 26.2443 40.5096 24.2585C40.5096 22.2472 40.8974 20.483 41.6729 18.9659C42.457 17.4403 43.5692 16.2514 45.0096 15.3991C46.4499 14.5384 48.163 14.108 50.1488 14.108C51.8619 14.108 53.3619 14.419 54.6488 15.0412C55.9357 15.6634 56.9542 16.5369 57.7042 17.6619C58.4542 18.7869 58.8675 20.108 58.9442 21.625H53.805C53.6602 20.6449 53.2766 19.8565 52.6545 19.2599C52.0408 18.6548 51.2354 18.3523 50.2383 18.3523C49.3945 18.3523 48.6573 18.5824 48.0266 19.0426C47.4045 19.4943 46.9187 20.1548 46.5692 21.0241C46.2198 21.8935 46.0451 22.946 46.0451 24.1818C46.0451 25.4347 46.2156 26.5 46.5565 27.3778C46.9059 28.2557 47.396 28.9247 48.0266 29.3849C48.6573 29.8452 49.3945 30.0753 50.2383 30.0753C50.8604 30.0753 51.4187 29.9474 51.913 29.6918C52.4158 29.4361 52.8292 29.0653 53.1531 28.5795C53.4854 28.0852 53.7028 27.4929 53.805 26.8026H58.9442C58.859 28.3026 58.4499 29.6236 57.717 30.7656C56.9925 31.8991 55.9911 32.7855 54.7127 33.4247C53.4343 34.0639 51.9215 34.3835 50.1744 34.3835ZM61.092 18.6463V14.3636H78.8874V18.6463H72.5593V34H67.369V18.6463H61.092ZM82.1889 41.3636V14.3636H87.5582V17.6619H87.8011C88.0398 17.1335 88.3849 16.5966 88.8366 16.0511C89.2969 15.4972 89.8935 15.0369 90.6264 14.6705C91.3679 14.2955 92.2884 14.108 93.3878 14.108C94.8196 14.108 96.1406 14.483 97.3509 15.233C98.5611 15.9744 99.5284 17.0952 100.253 18.5952C100.977 20.0866 101.339 21.9574 101.339 24.2074C101.339 26.3977 100.986 28.2472 100.278 29.7557C99.5795 31.2557 98.625 32.3935 97.4148 33.169C96.2131 33.9361 94.8665 34.3196 93.375 34.3196C92.3182 34.3196 91.419 34.1449 90.6776 33.7955C89.9446 33.446 89.3438 33.0071 88.875 32.4787C88.4062 31.9418 88.0483 31.4006 87.8011 30.8551H87.6349V41.3636H82.1889ZM87.5199 24.1818C87.5199 25.3494 87.6818 26.3679 88.0057 27.2372C88.3295 28.1065 88.7983 28.7841 89.4119 29.2699C90.0256 29.7472 90.7713 29.9858 91.6491 29.9858C92.5355 29.9858 93.2855 29.7429 93.8991 29.2571C94.5128 28.7628 94.9773 28.081 95.2926 27.2116C95.6165 26.3338 95.7784 25.3239 95.7784 24.1818C95.7784 23.0483 95.6207 22.0511 95.3054 21.1903C94.9901 20.3295 94.5256 19.6562 93.9119 19.1705C93.2983 18.6847 92.544 18.4418 91.6491 18.4418C90.7628 18.4418 90.0128 18.6761 89.3991 19.1449C88.794 19.6136 88.3295 20.2784 88.0057 21.1392C87.6818 22 87.5199 23.0142 87.5199 24.1818ZM113.842 34.3835C111.857 34.3835 110.139 33.9616 108.69 33.1179C107.25 32.2656 106.138 31.081 105.354 29.5639C104.57 28.0384 104.178 26.2699 104.178 24.2585C104.178 22.2301 104.57 20.4574 105.354 18.9403C106.138 17.4148 107.25 16.2301 108.69 15.3864C110.139 14.5341 111.857 14.108 113.842 14.108C115.828 14.108 117.541 14.5341 118.982 15.3864C120.43 16.2301 121.547 17.4148 122.331 18.9403C123.115 20.4574 123.507 22.2301 123.507 24.2585C123.507 26.2699 123.115 28.0384 122.331 29.5639C121.547 31.081 120.43 32.2656 118.982 33.1179C117.541 33.9616 115.828 34.3835 113.842 34.3835ZM113.868 30.1648C114.771 30.1648 115.526 29.9091 116.131 29.3977C116.736 28.8778 117.192 28.1705 117.499 27.2756C117.814 26.3807 117.972 25.3622 117.972 24.2202C117.972 23.0781 117.814 22.0597 117.499 21.1648C117.192 20.2699 116.736 19.5625 116.131 19.0426C115.526 18.5227 114.771 18.2628 113.868 18.2628C112.956 18.2628 112.189 18.5227 111.567 19.0426C110.953 19.5625 110.489 20.2699 110.173 21.1648C109.866 22.0597 109.713 23.0781 109.713 24.2202C109.713 25.3622 109.866 26.3807 110.173 27.2756C110.489 28.1705 110.953 28.8778 111.567 29.3977C112.189 29.9091 112.956 30.1648 113.868 30.1648Z" fill="black"/>
<path d="M130.276 33V6.81818H135.811V17.6207H147.048V6.81818H152.571V33H147.048V22.1847H135.811V33H130.276ZM169.625 24.6392V13.3636H175.071V33H169.842V29.4332H169.638C169.195 30.5838 168.457 31.5085 167.426 32.2074C166.403 32.9062 165.155 33.2557 163.68 33.2557C162.368 33.2557 161.213 32.9574 160.216 32.3608C159.219 31.7642 158.439 30.9162 157.876 29.8168C157.322 28.7173 157.041 27.4006 157.033 25.8665V13.3636H162.479V24.8949C162.487 26.054 162.798 26.9702 163.412 27.6435C164.026 28.3168 164.848 28.6534 165.879 28.6534C166.536 28.6534 167.149 28.5043 167.72 28.206C168.291 27.8991 168.751 27.4474 169.101 26.8509C169.459 26.2543 169.634 25.517 169.625 24.6392ZM179.529 33V6.81818H184.975V16.6619H185.142C185.38 16.1335 185.725 15.5966 186.177 15.0511C186.637 14.4972 187.234 14.0369 187.967 13.6705C188.708 13.2955 189.629 13.108 190.728 13.108C192.16 13.108 193.481 13.483 194.691 14.233C195.902 14.9744 196.869 16.0952 197.593 17.5952C198.318 19.0866 198.68 20.9574 198.68 23.2074C198.68 25.3977 198.326 27.2472 197.619 28.7557C196.92 30.2557 195.966 31.3935 194.755 32.169C193.554 32.9361 192.207 33.3196 190.716 33.3196C189.659 33.3196 188.76 33.1449 188.018 32.7955C187.285 32.446 186.684 32.0071 186.216 31.4787C185.747 30.9418 185.389 30.4006 185.142 29.8551H184.899V33H179.529ZM184.86 23.1818C184.86 24.3494 185.022 25.3679 185.346 26.2372C185.67 27.1065 186.139 27.7841 186.752 28.2699C187.366 28.7472 188.112 28.9858 188.99 28.9858C189.876 28.9858 190.626 28.7429 191.24 28.2571C191.853 27.7628 192.318 27.081 192.633 26.2116C192.957 25.3338 193.119 24.3239 193.119 23.1818C193.119 22.0483 192.961 21.0511 192.646 20.1903C192.331 19.3295 191.866 18.6562 191.252 18.1705C190.639 17.6847 189.885 17.4418 188.99 17.4418C188.103 17.4418 187.353 17.6761 186.74 18.1449C186.135 18.6136 185.67 19.2784 185.346 20.1392C185.022 21 184.86 22.0142 184.86 23.1818Z" fill="white"/>
</svg>
